<svg width="31" height="27" viewBox="0 0 31 27" fill="none" xmlns="http://www.w3.org/2000/svg">
<g clip-path="url(#clip0_2_1054)">
<path d="M30.1789 21.2998L25.1709 26.6318C25.063 26.7488 24.9318 26.842 24.7858 26.9053C24.6398 26.9687 24.4821 27.0009 24.3229 26.9998H0.582946C0.469788 26.9992 0.359187 26.9661 0.264329 26.9044C0.169472 26.8427 0.0943587 26.755 0.0479456 26.6518C0.00240225 26.5488 -0.0115203 26.4347 0.00794563 26.3238C0.0278294 26.2124 0.0791846 26.109 0.155946 26.0258L5.15795 20.6938C5.2658 20.5767 5.39696 20.4834 5.54301 20.4201C5.68905 20.3567 5.84675 20.3246 6.00595 20.3258H29.7459C29.8597 20.3227 29.9719 20.3535 30.0681 20.4143C30.1643 20.4751 30.2403 20.5631 30.2864 20.6672C30.3325 20.7712 30.3466 20.8867 30.3269 20.9988C30.3073 21.1109 30.2547 21.2146 30.1759 21.2968L30.1789 21.2998ZM25.1699 10.5598C25.0602 10.4451 24.9287 10.3534 24.7831 10.2902C24.6374 10.227 24.4807 10.1936 24.3219 10.1918H0.582946C0.469678 10.1925 0.358999 10.2257 0.26413 10.2876C0.169261 10.3495 0.0942115 10.4374 0.0479456 10.5408C0.00246087 10.6438 -0.0114595 10.7579 0.00794563 10.8688C0.0279456 10.9808 0.0789456 11.0818 0.155946 11.1658L5.15795 16.5008C5.26495 16.6158 5.39795 16.7088 5.54195 16.7708C5.68895 16.8348 5.84495 16.8658 6.00595 16.8688H29.7459C29.8585 16.8691 29.9687 16.8362 30.0628 16.7743C30.1568 16.7125 30.2306 16.6243 30.2749 16.5208C30.3206 16.4179 30.3347 16.3038 30.3154 16.1929C30.2962 16.082 30.2445 15.9793 30.1669 15.8978L25.1669 10.5628L25.1699 10.5598ZM0.581946 6.72979H24.3219C24.4815 6.72895 24.6392 6.69631 24.7859 6.63379C24.9329 6.56979 25.0629 6.47979 25.1699 6.36179L30.1799 1.02979C30.2378 0.968025 30.2813 0.894341 30.3076 0.813923C30.3339 0.733506 30.3422 0.648308 30.332 0.564326C30.3218 0.480344 30.2933 0.399617 30.2486 0.327825C30.2038 0.256034 30.1439 0.194922 30.0729 0.148791C29.9767 0.0871422 29.8642 0.0557901 29.7499 0.0587907H6.00595C5.84795 0.0587907 5.68895 0.0927907 5.54195 0.153791C5.39613 0.216693 5.26526 0.30973 5.15795 0.426791L0.155946 5.75879C0.0794256 5.84136 0.0284953 5.94435 0.0093262 6.05529C-0.00984286 6.16622 0.00357214 6.28033 0.0479456 6.38379C0.094288 6.48684 0.169246 6.57442 0.263909 6.63611C0.358572 6.6978 0.468958 6.73101 0.581946 6.73179V6.72979Z" fill="url(#paint0_linear_2_1054)"/>
</g>
<defs>
<linearGradient id="paint0_linear_2_1054" x1="2.56095" y1="27.6418" x2="27.2579" y2="-0.397209" gradientUnits="userSpaceOnUse">
<stop offset="0.08" stop-color="#9945FF"/>
<stop offset="0.3" stop-color="#8752F3"/>
<stop offset="0.5" stop-color="#5497D5"/>
<stop offset="0.6" stop-color="#43B4CA"/>
<stop offset="0.72" stop-color="#28E0B9"/>
<stop offset="0.97" stop-color="#19FB9B"/>
</linearGradient>
<clipPath id="clip0_2_1054">
<rect width="31" height="27" fill="white"/>
</clipPath>
</defs>
</svg>
